<svg width="124" height="101" viewBox="0 0 124 101" fill="none" xmlns="http://www.w3.org/2000/svg">
<path d="M73.8529 57.6117C67.8607 57.6117 63.8683 55.6062 62.3535 54.6871C60.8387 55.6062 56.8464 57.6117 50.8541 57.6117C42.828 57.6117 34.9885 54.7913 25.4349 48.467C25.1032 48.2474 24.9124 47.8691 24.9329 47.4721C24.9535 47.0751 25.1824 46.7184 25.535 46.5343C27.9106 45.2929 30.4789 44.1404 33.0308 43.1682C31.5855 41.4522 30.2399 39.5564 29.0332 37.5285C28.7158 36.9952 28.8909 36.3054 29.4242 35.9883C29.9575 35.6709 30.6473 35.8461 30.9644 36.3794C33.2463 40.2145 36.0421 43.5387 39.0503 45.9935C43.5835 49.6927 50.2114 51.712 59.25 52.137C56.1125 49.2826 53.7567 46.5571 52.0892 43.8584C51.7631 43.3307 51.9263 42.6383 52.4544 42.3119C52.9825 41.9858 53.6749 42.1494 54.0009 42.6771C55.6222 45.3007 57.9664 47.9759 61.133 50.8094C60.9355 47.8586 60.4414 45.3063 59.6377 43.0596C58.4135 39.6386 56.4725 36.8772 53.7029 34.6177C52.8959 33.9593 52.0369 33.3278 51.138 32.7254C51.1331 32.9229 51.1305 33.1194 51.1305 33.3151C51.1305 34.9438 51.3885 36.5818 51.8976 38.1836C52.0854 38.7752 51.7587 39.4067 51.1671 39.5945C50.5759 39.7828 49.944 39.4556 49.7561 38.864C49.1769 37.0419 48.8833 35.1749 48.8833 33.3147C48.8833 32.6735 48.9076 32.0225 48.9562 31.3633C41.8132 27.2033 32.8463 24.6749 26.3678 24.1618C26.6923 26.608 27.5464 29.4389 28.8256 32.2783C29.0806 32.8441 28.8286 33.5093 28.2628 33.7644C27.697 34.0194 27.0314 33.7673 26.7767 33.2015C25.1365 29.5617 24.177 26.0433 24.0019 23.0276C23.9836 22.7112 24.0997 22.4016 24.3216 22.1757C24.5434 21.9494 24.8474 21.828 25.1671 21.8396C29.2644 21.9979 34.0724 22.9308 38.8718 24.4871C38.9581 20.218 39.7439 16.2148 41.1223 13.0881C41.3643 12.5395 41.994 12.2777 42.5534 12.4925C45.7824 13.7331 49.3397 15.7461 52.6688 18.2076C52.6916 18.1606 52.714 18.1135 52.7368 18.0661C55.0747 13.2114 58.2234 8.86796 61.6029 5.83579C62.0297 5.45261 62.6769 5.45261 63.1038 5.83579C63.7951 6.45611 64.4898 7.1474 65.1683 7.89022C65.5866 8.34847 65.5545 9.05917 65.0963 9.47783C64.6376 9.89611 63.9273 9.86399 63.5087 9.40575C63.1266 8.98747 62.7397 8.58749 62.3524 8.20991C59.4711 11.0042 56.799 14.8106 54.7617 19.0412C52.9369 22.8304 51.7728 26.6218 51.3314 30.1731C52.7058 31.0351 53.9752 31.9389 55.124 32.8763C59.1914 36.1952 61.2951 40.2952 62.3741 44.2957C63.6655 39.5284 66.0546 35.7557 69.5831 32.8763C70.0637 32.4841 70.7718 32.5554 71.164 33.0365C71.5565 33.5171 71.4848 34.2252 71.0041 34.6173C66.5438 38.2572 64.1032 43.566 63.5815 50.7974C70.302 44.7454 73.5766 39.0097 73.5766 33.3147C73.5766 27.2018 70.8596 19.4811 66.4863 13.1654C66.133 12.6553 66.2604 11.955 66.7701 11.6021C67.2803 11.2488 67.9805 11.3762 68.3335 11.8863C69.7366 13.9127 70.9705 16.0497 72.011 18.2278C75.3475 15.7569 78.9149 13.7368 82.1532 12.4928C82.7131 12.2781 83.3423 12.5399 83.5843 13.0885C84.9665 16.2234 85.7531 20.2396 85.8352 24.5218C90.5753 22.976 95.409 21.9998 99.5392 21.8399C99.854 21.8284 100.163 21.9497 100.385 22.1761C100.607 22.4024 100.723 22.7116 100.704 23.0279C100.483 26.8369 99.0597 31.3719 96.6967 35.7968C95.2641 38.4797 93.5764 40.9667 91.699 43.1768C94.2431 44.1475 96.8032 45.2966 99.1717 46.5343C99.5243 46.7184 99.7528 47.0751 99.7737 47.4721C99.7943 47.8694 99.6031 48.2474 99.2718 48.467C97.7092 49.5015 96.2508 50.4071 94.8134 51.2366C94.2756 51.5466 93.5888 51.3625 93.2788 50.825C92.9688 50.2876 93.1529 49.6005 93.6903 49.2901C94.5762 48.7792 95.471 48.2373 96.3957 47.6524C94.348 46.6594 92.198 45.7463 90.0763 44.9691C89.1146 45.9648 88.1126 46.8895 87.0774 47.7342C81.2797 52.4653 73.5306 53.8998 67.0114 54.3125C68.7708 54.8835 71.0758 55.3638 73.8522 55.3638C78.8574 55.3638 83.9055 54.134 89.2842 51.6037C89.8455 51.3397 90.5151 51.5806 90.7792 52.1423C91.0432 52.704 90.802 53.3732 90.2406 53.6372C84.5569 56.312 79.1961 57.6117 73.8529 57.6117ZM28.3117 47.6524C36.7367 52.9755 43.7504 55.3645 50.8537 55.3645C53.6499 55.3645 55.968 54.8775 57.7319 54.3009C48.9039 53.7082 42.2995 51.5458 37.6289 47.7346C36.6056 46.8995 35.607 45.9722 34.6423 44.9646C32.5173 45.7425 30.3639 46.6572 28.3117 47.6524ZM75.7486 31.3876C75.7983 32.0412 75.8237 32.6839 75.8237 33.3151C75.8237 39.5721 72.4226 45.7519 65.4451 52.1404C74.5808 51.7285 81.053 49.7502 85.6567 45.9935C92.9793 40.018 97.4919 30.6164 98.34 24.1607C91.2789 24.7093 82.4318 27.5267 75.7486 31.3876ZM72.9506 20.3315C74.1569 23.2319 75.0125 26.1643 75.4611 28.9694C77.9711 27.5861 80.7426 26.3436 83.5956 25.2971C83.5985 21.49 83.0182 17.898 81.9381 15.0051C79.0318 16.248 75.8928 18.1064 72.9506 20.3315ZM41.1111 25.2594C44.0421 26.3305 46.7751 27.5693 49.2366 28.9373C49.674 26.1415 50.5131 23.2333 51.7295 20.3113C48.7948 18.0952 45.6663 16.2443 42.7686 15.0055C41.6922 17.8887 41.1122 21.4661 41.1111 25.2594ZM62.3535 2.39691C61.6929 2.39691 61.1551 1.85912 61.1551 1.19845C61.1551 0.537792 61.6929 0 62.3535 0C63.0146 0 63.552 0.537792 63.552 1.19845C63.552 1.85912 63.0142 2.39691 62.3535 2.39691Z" fill="#FF5C39"/>
<path d="M3.96524 90.2168C3.55219 90.2168 3.23208 90.1033 3.00491 89.8761C2.79839 89.6283 2.69512 89.2978 2.69512 88.8848V69.4613C2.69512 69.0276 2.80871 68.7075 3.03589 68.501C3.26306 68.2738 3.58317 68.1602 3.99622 68.1602H11.3381C13.6718 68.1602 15.4686 68.7385 16.7284 69.895C17.9881 71.0309 18.618 72.6417 18.618 74.7276C18.618 76.7929 17.9881 78.4037 16.7284 79.5603C15.4686 80.7168 13.6718 81.2951 11.3381 81.2951H5.23536V88.8848C5.23536 89.2978 5.13209 89.6283 4.92557 89.8761C4.71905 90.1033 4.39894 90.2168 3.96524 90.2168ZM5.23536 79.1575H11.0283C12.7012 79.1575 13.9609 78.7858 14.8077 78.0423C15.6751 77.2782 16.1088 76.1733 16.1088 74.7276C16.1088 73.2613 15.6751 72.1564 14.8077 71.4129C13.9609 70.6488 12.7012 70.2667 11.0283 70.2667H5.23536V79.1575ZM26.5427 90.2788C25.0557 90.2788 23.9199 89.8245 23.1351 88.9158C22.3503 88.0071 21.9579 86.706 21.9579 85.0125V69.2135C21.9579 68.8004 22.0612 68.4906 22.2677 68.2841C22.4742 68.0569 22.784 67.9434 23.197 67.9434C23.5894 67.9434 23.8992 68.0569 24.1264 68.2841C24.3536 68.4906 24.4672 68.8004 24.4672 69.2135V84.8266C24.4672 85.9418 24.684 86.7782 25.1177 87.3359C25.5721 87.8728 26.2329 88.1413 27.1003 88.1413C27.2862 88.1413 27.4514 88.131 27.596 88.1103C27.7405 88.0897 27.8851 88.0793 28.0297 88.0793C28.2569 88.0587 28.4117 88.1103 28.4944 88.2342C28.5976 88.3581 28.6492 88.606 28.6492 88.9777C28.6492 89.3495 28.5666 89.6283 28.4014 89.8141C28.2362 90 27.9677 90.1239 27.596 90.1859C27.4308 90.2065 27.2552 90.2272 27.0693 90.2478C26.8835 90.2685 26.7079 90.2788 26.5427 90.2788ZM36.4527 90.2788C35.2342 90.2788 34.2222 90.062 33.4168 89.6283C32.632 89.1739 32.0331 88.5027 31.62 87.6147C31.2276 86.7266 31.0314 85.6217 31.0314 84.3V75.9977C31.0314 75.564 31.1347 75.2439 31.3412 75.0374C31.5684 74.8309 31.8782 74.7276 32.2706 74.7276C32.6836 74.7276 32.9934 74.8309 33.1999 75.0374C33.4271 75.2439 33.5407 75.564 33.5407 75.9977V84.269C33.5407 85.5907 33.8092 86.582 34.3461 87.2429C34.9037 87.8831 35.7711 88.2033 36.9483 88.2033C38.2288 88.2033 39.2717 87.7696 40.0771 86.9022C40.8826 86.0348 41.2853 84.8989 41.2853 83.4945V75.9977C41.2853 75.564 41.3886 75.2439 41.5951 75.0374C41.8223 74.8309 42.1424 74.7276 42.5554 74.7276C42.9478 74.7276 43.2473 74.8309 43.4538 75.0374C43.681 75.2439 43.7946 75.564 43.7946 75.9977V88.9158C43.7946 89.7832 43.3918 90.2168 42.5864 90.2168C42.194 90.2168 41.8842 90.1033 41.657 89.8761C41.4505 89.6489 41.3473 89.3288 41.3473 88.9158V86.0967L41.75 86.5304C41.3369 87.7489 40.6554 88.6783 39.7054 89.3185C38.776 89.9587 37.6918 90.2788 36.4527 90.2788ZM49.7903 90.2168C49.3773 90.2168 49.0675 90.1033 48.861 89.8761C48.6545 89.6489 48.5512 89.3288 48.5512 88.9158V75.9977C48.5512 75.5847 48.6545 75.2749 48.861 75.0684C49.0675 74.8412 49.367 74.7276 49.7594 74.7276C50.1517 74.7276 50.4512 74.8412 50.6577 75.0684C50.8849 75.2749 50.9985 75.5847 50.9985 75.9977V78.7238L50.6577 78.2902C51.0501 77.1336 51.68 76.2456 52.5474 75.626C53.4355 74.9858 54.4887 74.6657 55.7072 74.6657C56.9877 74.6657 58.0203 74.9755 58.8051 75.595C59.6105 76.1939 60.1475 77.1336 60.4159 78.4141H59.9513C60.323 77.2575 60.9839 76.3488 61.9339 75.688C62.9045 75.0064 64.0301 74.6657 65.3105 74.6657C66.4464 74.6657 67.3758 74.8825 68.0986 75.3162C68.8421 75.7499 69.3997 76.4108 69.7714 77.2988C70.1432 78.1662 70.329 79.2711 70.329 80.6135V88.9158C70.329 89.3288 70.2154 89.6489 69.9883 89.8761C69.7818 90.1033 69.472 90.2168 69.0589 90.2168C68.6665 90.2168 68.3567 90.1033 68.1296 89.8761C67.923 89.6489 67.8198 89.3288 67.8198 88.9158V80.7374C67.8198 79.3537 67.5823 78.3418 67.1073 77.7016C66.6323 77.0407 65.8268 76.7103 64.691 76.7103C63.4518 76.7103 62.4708 77.1439 61.748 78.0113C61.0458 78.8581 60.6947 80.0146 60.6947 81.4809V88.9158C60.6947 89.3288 60.5812 89.6489 60.354 89.8761C60.1475 90.1033 59.8377 90.2168 59.4246 90.2168C59.0322 90.2168 58.7224 90.1033 58.4953 89.8761C58.2887 89.6489 58.1855 89.3288 58.1855 88.9158V80.7374C58.1855 79.3537 57.9377 78.3418 57.442 77.7016C56.967 77.0407 56.1719 76.7103 55.0567 76.7103C53.8175 76.7103 52.8365 77.1439 52.1137 78.0113C51.4115 78.8581 51.0604 80.0146 51.0604 81.4809V88.9158C51.0604 89.7832 50.6371 90.2168 49.7903 90.2168ZM81.8049 90.2788C80.2146 90.2788 78.8412 89.969 77.6847 89.3495C76.5488 88.7092 75.6608 87.8109 75.0206 86.6543C74.401 85.4978 74.0912 84.1141 74.0912 82.5032C74.0912 80.9336 74.401 79.5706 75.0206 78.4141C75.6401 77.2369 76.4869 76.3179 77.5608 75.657C78.6554 74.9961 79.9152 74.6657 81.3402 74.6657C82.3521 74.6657 83.2608 74.8412 84.0663 75.1923C84.8717 75.5227 85.5532 76.0081 86.1109 76.6483C86.6891 77.2885 87.1228 78.063 87.4119 78.9717C87.7217 79.8804 87.8766 80.9027 87.8766 82.0385C87.8766 82.369 87.7837 82.6168 87.5978 82.782C87.4119 82.9266 87.1435 82.9989 86.7924 82.9989H76.0119V81.357H86.2038L85.7081 81.7597C85.7081 80.6445 85.5429 79.7048 85.2125 78.9407C84.882 78.1559 84.3967 77.557 83.7565 77.1439C83.1369 76.7309 82.3521 76.5244 81.4021 76.5244C80.3489 76.5244 79.4505 76.7722 78.707 77.2679C77.9842 77.7429 77.4369 78.4141 77.0652 79.2815C76.6934 80.1282 76.5075 81.1195 76.5075 82.2554V82.4413C76.5075 84.3413 76.9619 85.7869 77.8706 86.7782C78.7999 87.7696 80.1114 88.2652 81.8049 88.2652C82.507 88.2652 83.1989 88.1723 83.8804 87.9864C84.5826 87.8005 85.2641 87.4907 85.925 87.057C86.2141 86.8712 86.4723 86.7886 86.6994 86.8092C86.9473 86.8092 87.1435 86.8815 87.288 87.0261C87.4326 87.15 87.5255 87.3152 87.5668 87.5217C87.6288 87.7076 87.6081 87.9141 87.5049 88.1413C87.4223 88.3685 87.2467 88.5647 86.9783 88.7299C86.2967 89.2255 85.4913 89.6076 84.5619 89.8761C83.6326 90.1446 82.7136 90.2788 81.8049 90.2788ZM92.7782 90.2168C92.3652 90.2168 92.0451 90.1033 91.8179 89.8761C91.6114 89.6489 91.5081 89.3288 91.5081 88.9158V75.9977C91.5081 75.5847 91.6114 75.2749 91.8179 75.0684C92.0244 74.8412 92.3239 74.7276 92.7163 74.7276C93.1087 74.7276 93.4081 74.8412 93.6147 75.0684C93.8418 75.2749 93.9554 75.5847 93.9554 75.9977V78.507H93.6456C93.9761 77.2885 94.606 76.3488 95.5353 75.688C96.4647 75.0271 97.6109 74.676 98.9739 74.6347C99.2837 74.614 99.5315 74.6863 99.7174 74.8515C99.9033 74.9961 100.007 75.2543 100.027 75.626C100.048 75.9771 99.9652 76.2559 99.7794 76.4624C99.5935 76.6689 99.3044 76.7929 98.912 76.8342L98.4163 76.8961C97.012 77.02 95.9277 77.4744 95.1636 78.2592C94.4201 79.0233 94.0483 80.0766 94.0483 81.419V88.9158C94.0483 89.3288 93.9348 89.6489 93.7076 89.8761C93.5011 90.1033 93.1913 90.2168 92.7782 90.2168ZM103.85 90.1549C103.437 90.1549 103.127 90.0413 102.921 89.8141C102.714 89.5663 102.611 89.2255 102.611 88.7918V76.1217C102.611 75.688 102.714 75.3575 102.921 75.1304C103.127 74.9032 103.437 74.7896 103.85 74.7896C104.242 74.7896 104.552 74.9032 104.779 75.1304C105.006 75.3575 105.12 75.688 105.12 76.1217V88.7918C105.12 89.2255 105.006 89.5663 104.779 89.8141C104.573 90.0413 104.263 90.1549 103.85 90.1549ZM103.85 71.32C103.334 71.32 102.931 71.1858 102.642 70.9173C102.353 70.6281 102.208 70.2461 102.208 69.7711C102.208 69.2754 102.353 68.9037 102.642 68.6559C102.931 68.3874 103.334 68.2531 103.85 68.2531C104.387 68.2531 104.79 68.3874 105.058 68.6559C105.347 68.9037 105.492 69.2754 105.492 69.7711C105.492 70.2461 105.347 70.6281 105.058 70.9173C104.79 71.1858 104.387 71.32 103.85 71.32ZM114.551 90.2788C113.518 90.2788 112.589 90.0826 111.762 89.6902C110.957 89.2772 110.317 88.7196 109.842 88.0174C109.367 87.3152 109.129 86.5304 109.129 85.663C109.129 84.5478 109.408 83.6701 109.966 83.0299C110.544 82.3896 111.484 81.9353 112.785 81.6668C114.106 81.3983 115.903 81.2641 118.175 81.2641H119.569V82.9059H118.206C116.533 82.9059 115.211 82.9885 114.241 83.1538C113.291 83.2983 112.62 83.5565 112.227 83.9282C111.855 84.3 111.67 84.8266 111.67 85.5081C111.67 86.3549 111.959 87.0467 112.537 87.5837C113.136 88.1206 113.941 88.3891 114.953 88.3891C115.779 88.3891 116.502 88.1929 117.122 87.8005C117.762 87.4081 118.258 86.8712 118.609 86.1897C118.98 85.5081 119.166 84.7233 119.166 83.8353V80.3037C119.166 79.0233 118.908 78.1043 118.392 77.5467C117.876 76.9684 117.029 76.6793 115.852 76.6793C115.129 76.6793 114.406 76.7722 113.683 76.9581C112.96 77.1439 112.196 77.4434 111.391 77.8565C111.102 78.001 110.854 78.0526 110.647 78.0113C110.441 77.9494 110.275 77.8358 110.152 77.6706C110.028 77.5054 109.955 77.3195 109.935 77.113C109.914 76.8858 109.955 76.6689 110.059 76.4624C110.183 76.2559 110.368 76.0907 110.616 75.9668C111.525 75.5124 112.423 75.182 113.311 74.9755C114.199 74.7689 115.046 74.6657 115.852 74.6657C117.153 74.6657 118.227 74.8825 119.073 75.3162C119.92 75.7293 120.55 76.3695 120.963 77.2369C121.376 78.0836 121.583 79.1782 121.583 80.5206V88.9158C121.583 89.3288 121.479 89.6489 121.273 89.8761C121.087 90.1033 120.808 90.2168 120.436 90.2168C120.044 90.2168 119.745 90.1033 119.538 89.8761C119.332 89.6489 119.228 89.3288 119.228 88.9158V86.4994H119.507C119.342 87.2842 119.022 87.9554 118.547 88.513C118.092 89.0706 117.524 89.5043 116.843 89.8141C116.161 90.1239 115.397 90.2788 114.551 90.2788Z" fill="#5087FF"/>
</svg>
